<?xml version="1.0" encoding="UTF-8"?>
<svg id="Layer_1" xmlns="http://www.w3.org/2000/svg" xmlns:xlink="http://www.w3.org/1999/xlink" viewBox="0 0 614.21 598.84">
  <defs>
    <style>
      .cls-1 {
        fill: url(#linear-gradient-3);
      }

      .cls-1, .cls-2, .cls-3, .cls-4, .cls-5, .cls-6, .cls-7 {
        fill-rule: evenodd;
      }

      .cls-8 {
        fill: url(#radial-gradient);
      }

      .cls-2 {
        fill: url(#linear-gradient-5);
      }

      .cls-3 {
        fill: url(#linear-gradient-2);
      }

      .cls-4 {
        fill: url(#linear-gradient-6);
      }

      .cls-5 {
        fill: url(#linear-gradient-4);
      }

      .cls-6 {
        fill: url(#linear-gradient-7);
      }

      .cls-7 {
        fill: url(#linear-gradient);
      }
    </style>
    <linearGradient id="linear-gradient" x1="307.1" y1="44.67" x2="307.1" y2="115.09" gradientTransform="translate(-87.83 -57.45) scale(1.29)" gradientUnits="userSpaceOnUse">
      <stop offset=".24" stop-color="#6c63de"/>
      <stop offset="1" stop-color="#5b2a91"/>
    </linearGradient>
    <linearGradient id="linear-gradient-2" x1="307.1" y1="44.67" x2="307.1" y2="115.09" gradientTransform="translate(-230.33 391.56) rotate(-51.43) scale(1.29)" xlink:href="#linear-gradient"/>
    <linearGradient id="linear-gradient-3" x1="307.1" y1="44.67" x2="307.1" y2="115.09" gradientTransform="translate(31.89 782.92) rotate(-102.86) scale(1.29)" xlink:href="#linear-gradient"/>
    <linearGradient id="linear-gradient-4" x1="308.59" y1="48.15" x2="308.59" y2="118.57" gradientTransform="translate(501.36 821.91) rotate(-154.29) scale(1.29)" xlink:href="#linear-gradient"/>
    <linearGradient id="linear-gradient-5" x1="307.1" y1="44.67" x2="307.1" y2="115.09" gradientTransform="translate(824.54 479.16) rotate(154.28) scale(1.29)" xlink:href="#linear-gradient"/>
    <linearGradient id="linear-gradient-6" x1="307.1" y1="44.67" x2="307.1" y2="115.09" gradientTransform="translate(758.06 12.79) rotate(102.85) scale(1.29)" xlink:href="#linear-gradient"/>
    <linearGradient id="linear-gradient-7" x1="307.1" y1="44.67" x2="307.1" y2="115.09" gradientTransform="translate(351.98 -226) rotate(51.42) scale(1.29)" xlink:href="#linear-gradient"/>
    <radialGradient id="radial-gradient" cx="307.1" cy="315" fx="307.1" fy="315" r="224" gradientUnits="userSpaceOnUse">
      <stop offset="0" stop-color="#6c63de"/>
      <stop offset=".3" stop-color="#6754ca"/>
      <stop offset=".91" stop-color="#5c2f98"/>
      <stop offset="1" stop-color="#5b2a91"/>
    </radialGradient>
  </defs>
  <path class="cls-7" d="M420.64,140.95c-33.29-26.6-67.53-56.46-89.6-93.41-6.46-10.91-13.81-26.11-17.72-35.73-1.17-2.79-2.38-5.78-3.57-8.36-.76-1.48-1.32-3.12-2.62-3.45-1.34.3-1.87,1.96-2.66,3.45-1.19,2.59-2.4,5.57-3.57,8.36-3.91,9.63-11.25,24.82-17.72,35.73-22.08,36.95-56.31,66.81-89.6,93.41"/>
  <path class="cls-3" d="M241.81,117.71c-41.55,9.45-86.24,17.6-128.9,11.82-12.56-1.75-29.02-5.48-38.98-8.42-2.92-.82-6.01-1.74-8.76-2.42-1.64-.33-3.26-.91-4.33-.1-.6,1.24.36,2.69,1.03,4.23,1.28,2.54,2.86,5.35,4.31,8.01,5.09,9.06,12.39,24.27,16.89,36.13,15.13,40.3,17.13,85.68,17.17,128.29"/>
  <path class="cls-1" d="M112.14,243.05c-18.52,38.38-40.01,78.4-71.13,108.15-9.2,8.73-22.38,19.28-30.89,25.23-2.46,1.77-5.11,3.61-7.35,5.35-1.28,1.07-2.75,1.99-2.77,3.33.59,1.24,2.33,1.39,3.95,1.83,2.79.59,5.96,1.1,8.95,1.62,10.25,1.67,26.7,5.45,38.78,9.32,40.94,13.3,77.67,40.03,111.01,66.56"/>
  <path class="cls-5" d="M129.51,417.71c18.46,38.41,36.35,80.16,40.21,123.04,1.09,12.63,1.12,29.51.46,39.88-.15,3.03-.36,6.24-.41,9.08.04,1.67-.16,3.38.87,4.24,1.34.31,2.54-.95,3.89-1.95,2.2-1.81,4.58-3.98,6.85-5.98,7.7-6.98,20.91-17.48,31.46-24.51,35.92-23.72,79.72-35.77,121.25-45.29"/>
  <path class="cls-2" d="M280.35,521.08c41.54,9.51,85.34,21.56,121.26,45.27,10.56,7.02,23.77,17.53,31.47,24.5,2.27,2.01,4.66,4.17,6.85,5.98,1.33,1.01,2.55,2.24,3.86,1.96,1.08-.85.84-2.58.9-4.26-.05-2.85-.25-6.06-.41-9.08-.66-10.37-.63-27.25.46-39.88,3.85-42.87,21.73-84.63,40.19-123.04"/>
  <path class="cls-4" d="M451.55,464.4c33.33-26.54,70.06-53.28,111-66.59,12.07-3.88,28.52-7.66,38.78-9.33,2.99-.52,6.17-1.04,8.95-1.63,1.62-.41,3.34-.6,3.94-1.79,0-1.38-1.49-2.26-2.77-3.36-2.26-1.74-4.89-3.58-7.36-5.34-8.52-5.95-21.7-16.49-30.89-25.22-31.12-29.74-52.62-69.76-71.14-108.13"/>
  <path class="cls-6" d="M513.97,295.22c.03-42.61,2.02-88,17.15-128.3,4.5-11.86,11.79-27.08,16.88-36.13,1.45-2.66,3.03-5.47,4.31-8.01.68-1.52,1.61-2.98,1.06-4.2-1.07-.86-2.7-.24-4.35.07-2.77.68-5.85,1.6-8.76,2.42-9.96,2.95-26.42,6.68-38.98,8.43-42.65,5.79-87.35-2.35-128.9-11.79"/>
  <g>
    <path class="cls-8" d="M307.1,539c-59.83,0-116.08-23.3-158.39-65.61-42.31-42.31-65.61-98.56-65.61-158.39s23.3-116.08,65.61-158.39c42.31-42.31,98.56-65.61,158.39-65.61s116.08,23.3,158.39,65.61c42.31,42.31,65.61,98.56,65.61,158.39s-23.3,116.08-65.61,158.39c-42.31,42.31-98.56,65.61-158.39,65.61Z"/>
    <path d="M307.1,92c30.11,0,59.31,5.9,86.8,17.52,26.55,11.23,50.4,27.31,70.88,47.79s36.56,44.33,47.79,70.88c11.63,27.49,17.52,56.7,17.52,86.8s-5.9,59.31-17.52,86.8c-11.23,26.55-27.31,50.4-47.79,70.88s-44.33,36.56-70.88,47.79c-27.49,11.63-56.7,17.52-86.8,17.52s-59.31-5.9-86.8-17.52c-26.55-11.23-50.4-27.31-70.88-47.79s-36.56-44.33-47.79-70.88c-11.63-27.49-17.52-56.7-17.52-86.8s5.9-59.31,17.52-86.8c11.23-26.55,27.31-50.4,47.79-70.88s44.33-36.56,70.88-47.79c27.49-11.63,56.7-17.52,86.8-17.52M307.1,90c-124.26,0-225,100.74-225,225s100.74,225,225,225,225-100.74,225-225-100.74-225-225-225h0Z"/>
  </g>
</svg>